<svg width="1920" height="1080" viewBox="0 0 1920 1080" fill="none" xmlns="http://www.w3.org/2000/svg">
  <rect width="1920" height="1080" fill="#060E1E"/>
  <g opacity="0.45">
    <path d="M0 172H1920" stroke="#1E3F72" stroke-width="1"/>
    <path d="M0 300H1920" stroke="#1E3F72" stroke-width="1"/>
    <path d="M0 428H1920" stroke="#1E3F72" stroke-width="1"/>
    <path d="M0 556H1920" stroke="#1E3F72" stroke-width="1"/>
    <path d="M0 684H1920" stroke="#1E3F72" stroke-width="1"/>
    <path d="M0 812H1920" stroke="#1E3F72" stroke-width="1"/>
    <path d="M0 940H1920" stroke="#1E3F72" stroke-width="1"/>
    <path d="M216 0V1080" stroke="#1E3F72" stroke-width="1"/>
    <path d="M456 0V1080" stroke="#1E3F72" stroke-width="1"/>
    <path d="M696 0V1080" stroke="#1E3F72" stroke-width="1"/>
    <path d="M936 0V1080" stroke="#1E3F72" stroke-width="1"/>
    <path d="M1176 0V1080" stroke="#1E3F72" stroke-width="1"/>
    <path d="M1416 0V1080" stroke="#1E3F72" stroke-width="1"/>
    <path d="M1656 0V1080" stroke="#1E3F72" stroke-width="1"/>
  </g>
  <ellipse cx="1512" cy="268" rx="436" ry="284" fill="url(#paint0_radial_86_10)"/>
  <ellipse cx="1448" cy="738" rx="526" ry="324" fill="url(#paint1_radial_86_10)"/>
  <rect x="1086" y="216" width="600" height="352" rx="14" fill="#0C1C37" stroke="#2D5DA0" stroke-width="2"/>
  <rect x="1126" y="264" width="238" height="14" rx="7" fill="#2F80FF"/>
  <rect x="1126" y="300" width="392" height="12" rx="6" fill="#40689A"/>
  <rect x="1126" y="334" width="520" height="12" rx="6" fill="#40689A"/>
  <rect x="1126" y="368" width="450" height="12" rx="6" fill="#40689A"/>
  <rect x="1126" y="402" width="378" height="12" rx="6" fill="#40689A"/>
  <rect x="1126" y="436" width="534" height="12" rx="6" fill="#40689A"/>
  <rect x="1126" y="470" width="328" height="12" rx="6" fill="#40689A"/>
  <rect x="1246" y="674" width="540" height="250" rx="14" fill="#0C1C37" stroke="#2D5DA0" stroke-width="2"/>
  <path d="M1286 812C1370 702 1418 844 1500 756C1588 662 1668 726 1746 642" stroke="#4EA0FF" stroke-width="4" stroke-linecap="round"/>
  <circle cx="1286" cy="812" r="7" fill="#F7FBFF"/>
  <circle cx="1500" cy="756" r="7" fill="#F7FBFF"/>
  <circle cx="1746" cy="642" r="7" fill="#F7FBFF"/>
  <defs>
    <radialGradient id="paint0_radial_86_10" cx="0" cy="0" r="1" gradientUnits="userSpaceOnUse" gradientTransform="translate(1512 268) rotate(90) scale(284 436)">
      <stop stop-color="#2F80FF" stop-opacity="0.5"/>
      <stop offset="1" stop-color="#2F80FF" stop-opacity="0"/>
    </radialGradient>
    <radialGradient id="paint1_radial_86_10" cx="0" cy="0" r="1" gradientUnits="userSpaceOnUse" gradientTransform="translate(1448 738) rotate(90) scale(324 526)">
      <stop stop-color="#2F80FF" stop-opacity="0.4"/>
      <stop offset="1" stop-color="#2F80FF" stop-opacity="0"/>
    </radialGradient>
  </defs>
</svg>
